<svg width="18" height="18" viewBox="0 0 18 18" fill="none" xmlns="http://www.w3.org/2000/svg">
<g clip-path="url(#clip0_4775_750)">
<path d="M14.2877 3.95727V7.49836H13.1849V4.01892C13.1849 3.30658 12.8014 2.93672 12.1233 2.93672H2.16438C1.47945 2.93672 1.10274 3.30658 1.10274 4.01892V10.8271C1.10274 11.5394 1.49315 11.9093 2.16438 11.9093H6.71917V13.012H2.15068C0.712324 13.012 0 12.2997 0 10.8888V3.95727C0 2.54631 0.712324 1.83398 2.15068 1.83398H12.1439C13.5753 1.83398 14.2877 2.54631 14.2877 3.95727Z" fill="black"/>
<path d="M8.87042 16.1869H15.6033C17.0279 16.1869 17.7471 15.4746 17.7471 14.0636V9.62521C17.7471 8.21428 17.0279 7.50195 15.6033 7.50195H8.87042C7.43892 7.50195 6.71973 8.20743 6.71973 9.62521V14.0636C6.71973 15.4746 7.43892 16.1869 8.87042 16.1869Z" fill="black"/>
<path d="M7.11591 5.51489C7.4605 5.51489 7.74054 5.22052 7.74054 4.89026C7.74054 4.55999 7.4605 4.26562 7.11591 4.26562C6.77125 4.26562 6.49121 4.55999 6.49121 4.89026C6.49121 5.22052 6.77125 5.51489 7.11591 5.51489Z" fill="black"/>
<path d="M5.10412 5.51489C5.44871 5.51489 5.73595 5.22052 5.73595 4.89026C5.73595 4.55999 5.44871 4.26562 5.10412 4.26562C4.75946 4.26562 4.47949 4.55999 4.47949 4.89026C4.47949 5.22052 4.75946 5.51489 5.10412 5.51489Z" fill="black"/>
<path d="M3.1012 5.51489C3.44582 5.51489 3.72583 5.22052 3.72583 4.89026C3.72583 4.55999 3.44582 4.26562 3.1012 4.26562C2.75657 4.26562 2.47656 4.55999 2.47656 4.89026C2.47656 5.22052 2.75657 5.51489 3.1012 5.51489Z" fill="black"/>
</g>
<defs>
<clipPath id="clip0_4775_750">
<rect width="18" height="14.363" fill="white" transform="translate(0 1.82227)"/>
</clipPath>
</defs>
</svg>
