<svg width="1024" height="1024" viewBox="0 0 1024 1024" fill="none" xmlns="http://www.w3.org/2000/svg">
<g clip-path="url(#clip0_4766_669)">
<path d="M709.336 323.817V456.083H668.146V326.119C668.146 299.512 653.821 285.697 628.493 285.697H256.508C230.925 285.697 216.854 299.512 216.854 326.119V580.42C216.854 607.026 231.436 620.842 256.508 620.842H426.638V662.03H255.996C202.271 662.03 175.664 635.424 175.664 582.722V323.817C175.664 271.115 202.271 244.508 255.996 244.508H629.261C682.73 244.508 709.336 271.115 709.336 323.817Z" fill="black" fill-opacity="0.85"/>
<path d="M506.971 780.483H758.457C811.669 780.483 838.532 753.876 838.532 701.175V535.392C838.532 482.691 811.669 456.084 758.457 456.084H506.971C453.502 456.084 426.639 482.435 426.639 535.392V701.175C426.639 753.876 453.502 780.483 506.971 780.483Z" fill="black" fill-opacity="0.85"/>
</g>
<defs>
<clipPath id="clip0_4766_669">
<rect width="672.336" height="536.486" fill="white" transform="translate(175.664 243.996)"/>
</clipPath>
</defs>
</svg>
